<svg width="533" height="289" viewBox="0 0 533 289" fill="none" xmlns="http://www.w3.org/2000/svg">
<path d="M145.891 170.375L173.631 170.4C190.245 170.429 209.064 169.424 222.187 181.171C233.979 191.727 236.088 207.341 235.486 222.152C234.965 234.978 231.779 245.852 222.796 255.49C208.857 269.086 193.079 267.993 174.863 267.943C165.161 267.877 155.459 267.878 145.758 267.945C146.362 235.607 145.588 202.79 145.891 170.375ZM165.211 186.751C164.996 208.215 165.42 230.037 165.042 251.408C174.031 251.109 183.197 251.957 192.176 251.191C198.03 250.691 202.339 248.695 206.853 245.115C214.602 237.481 216.062 229.216 215.957 219.04C215.599 184.445 195.73 186.684 168.709 186.667L165.211 186.751Z" fill="url(#paint0_linear_0_1)"/>
<path d="M374.716 69.0627C381.236 68.3122 393.424 69.4881 399.882 71.0599C409.956 73.4372 420.581 78.9817 425.854 88.3233C437.837 109.551 433.813 145.776 411.41 158.834C396.708 167.403 380.562 165.032 364.96 160.778L364.985 166.257L365.056 187.975C356.989 193.188 348.806 198.22 340.514 203.066C340.538 182.3 340.315 200.086 340.529 179.339C340.83 164.492 340.525 111.354 340.529 96.5038C340.533 89.473 340.666 81.5831 340.272 74.6213C353.719 72.2805 360.078 70.031 374.716 69.0627ZM365.086 92.3771C365.33 106.856 365.028 122.116 365.021 136.668C374.96 140.551 382.296 143.238 393.178 140.597C398.004 138.987 402.759 135.706 404.924 130.95C410.223 119.309 410.786 99.5823 397.414 93.1736C393.347 91.2243 384.402 89.6237 379.782 90.1883C374.754 90.6801 370.054 91.5258 365.086 92.3771Z" fill="url(#paint1_linear_0_1)"/>
<path d="M201.061 68.927L213.57 68.8306C213.759 72.0886 215.02 77.6746 215.684 80.9045C233.362 69.6775 252.567 60.7715 267.928 80.923C277.37 74.7851 288.9 68.8414 300.346 68.8957C334.906 69.0599 331.474 99.5449 331.414 123.288L331.44 163.759C323.399 163.56 314.9 163.684 306.825 163.675L306.844 126.103C306.923 105.093 310.19 77.2307 279.61 96.5705L275.038 99.4383L275.072 163.818C266.92 163.717 258.768 163.714 250.616 163.809C250.237 150.142 250.746 135.875 250.574 122.156C250.426 115.852 251.277 109.38 250.583 103.103C248.178 81.3439 230.713 91.2221 219.475 98.6073L219.451 163.723C211.152 163.668 202.593 163.51 194.319 163.725L194.341 69.0126L201.061 68.927Z" fill="url(#paint2_linear_0_1)"/>
<path d="M271.632 195.334C273.062 195.27 274.494 195.258 275.925 195.299C284.642 195.586 294.934 197.693 300.98 204.186C309.845 213.706 308.558 226.533 308.082 238.279C291.437 238.175 274.79 238.154 258.145 238.215C258.221 238.677 258.303 239.138 258.391 239.597C261.752 256.938 288.553 253.655 301.476 251.198C302.608 251.015 303.161 250.843 304.291 251.076C304.986 252.292 304.709 262.905 304.699 265.111C299.734 266.365 294.668 267.21 289.557 267.634C276.286 268.794 261.062 267.365 250.428 258.602C235.1 245.97 235.13 219.318 247.664 204.84C253.596 197.988 262.844 195.973 271.632 195.334ZM257.971 224.76L274.751 224.739C279.541 224.75 285.152 224.637 289.876 224.848C288.431 214.997 285.218 209.686 273.908 210.366C264.144 210.878 259.969 215.941 257.971 224.76Z" fill="url(#paint3_linear_0_1)"/>
<path d="M161.529 68.9223C169.304 68.67 177.989 69.0334 186.034 68.8935L185.926 105.826L185.873 163.487C179.634 163.409 173.395 163.422 167.155 163.525C166.391 159.358 165.023 154.913 164.11 150.621C151.778 156.693 142.145 163.75 127.421 163.583C120.451 163.644 113.419 161.402 108.48 156.244C97.4721 144.751 99.6728 125.461 99.7145 110.901L99.8707 69.234L104.711 69.0143C111.168 68.7907 118.066 69.0551 124.655 68.9351L124.587 106.952C124.578 115 124.449 123.09 125.085 131.116C126.81 152.907 150.918 139.116 161.482 133.327C160.796 112.641 161.366 89.7598 161.529 68.9223Z" fill="url(#paint4_linear_0_1)"/>
<path d="M359.381 195.275C364.034 195.912 374.394 195.572 379.292 195.489C378.343 198.7 376.368 203.344 375.095 206.581L367.158 226.538C363.675 235.342 360.126 244.122 356.513 252.876C354.924 256.656 352.06 263.696 349.914 266.889C345.453 268.356 335.957 267.94 330.999 267.891C329.238 262.443 326.188 255.539 324.001 250.173C320.801 242.268 317.671 234.336 314.612 226.377C310.705 216.245 306.637 205.523 302.445 195.532C309.27 195.563 316.095 195.539 322.919 195.461C324.572 198.843 327.293 208.186 328.716 212.285C332.614 223.508 336.67 234.678 340.884 245.79C345.295 232.814 350.941 219.962 355.24 206.905C356.468 203.176 357.874 198.875 359.381 195.275Z" fill="url(#paint5_linear_0_1)"/>
<path d="M90.6399 15C92.1702 16.7915 90.7648 113.72 90.7014 124.246C90.6508 132.559 83.3404 148.383 75.9993 154.397C60.7229 166.912 42.5964 165.841 24.0882 164.468L24 142.482C28.2328 143.283 32.5919 143.788 36.897 143.886C70.2922 144.646 66.0201 114.625 65.9657 91.7377L66.0137 40.675C68.1434 37.9312 73.3087 33.003 75.902 30.3652C80.8502 25.2779 85.7633 20.1562 90.6399 15Z" fill="#B363FB"/>
<path d="M404.459 169.075C413.446 164.414 428.446 163.92 437.34 169.101C454.019 177.433 458.146 200.188 453.162 216.958C450.557 225.725 445.802 232.548 437.888 236.903C429.288 241.635 418.295 242.227 409.094 239.334C401.328 236.936 394.809 231.449 390.976 224.085C384.467 211.446 384.708 193.653 391.784 181.279C394.941 175.759 399.003 172.032 404.459 169.075ZM421.917 227.648C426.916 227.19 431.116 225.649 434.483 221.516C439.47 215.289 440.229 206.381 439.589 198.646C439.084 192.55 436.891 186.574 432.239 182.599C429.378 180.155 423.229 178.197 419.508 178.836C414.455 179.493 409.909 181.093 406.708 185.482C402.258 191.584 400.956 200.865 401.948 208.298C402.748 214.288 405.019 220.361 409.776 224.187C412.759 226.586 418.153 228.125 421.917 227.648Z" fill="url(#paint6_linear_0_1)"/>
<path d="M408.235 172.44C417.237 167.301 432.26 166.757 441.169 172.469L441.045 172.999C441.006 172.99 440.836 172.953 440.784 172.927C438.905 172.014 436.503 172.962 434.561 173.179C431.26 173.546 428.047 173.259 424.763 173.212C420.936 173.157 417.102 173.158 413.274 173.047C412.708 173.03 412.257 172.277 411.708 172.185C410.663 172.195 409.107 173.092 408.235 172.44Z" fill="#EE1A25"/>
<path d="M470.506 167.716C479.18 164.68 489.858 164.353 498.405 168.359C498.513 168.409 498.623 168.483 498.723 168.548C500.392 169.077 503.598 171.467 504.872 172.752C509.448 177.371 510.699 182.191 510.865 188.539C505.937 188.509 501.008 188.524 496.08 188.583C495.764 185.582 495.1 183.27 492.963 181.056C488.78 176.724 478.069 176.569 473.958 181.016C472.637 182.452 471.937 184.38 472.019 186.358C472.23 192.426 480.116 193.637 484.549 194.685C497.844 197.828 512.732 200.841 513.022 218.109C513.3 234.727 499.19 240.975 485.063 241.089C476.664 241.157 467.875 239.404 461.607 233.301C457.017 228.796 455.237 222.334 455.141 215.932C459.91 215.895 464.678 215.814 469.446 215.69C470.21 220.483 471.824 225.123 476.591 227.116C481.772 229.167 487.612 229.029 492.784 227.231C499.482 224.903 500.376 216.277 493.979 213.222C486.73 209.76 478.474 208.959 470.817 206.062C459.265 201.693 454.176 191.282 458.396 179.331C460.477 173.564 465.086 170.081 470.506 167.716Z" fill="url(#paint7_linear_0_1)"/>
<path d="M474.103 170.931C483 167.598 493.953 167.239 502.72 171.636C502.83 171.691 502.944 171.773 503.046 171.844C501.515 172.245 499.864 171.362 498.512 171.416C497.148 171.469 494.918 172.415 493.528 172.365C490.433 172.255 475.798 172.678 474.103 170.931Z" fill="#EE1A25"/>
<defs>
<linearGradient id="paint0_linear_0_1" x1="203.032" y1="266.001" x2="163.268" y2="164.408" gradientUnits="userSpaceOnUse">
<stop stop-color="#608FF9"/>
<stop offset="1" stop-color="#9A6DFF"/>
</linearGradient>
<linearGradient id="paint1_linear_0_1" x1="397.305" y1="175.301" x2="348.839" y2="71.5271" gradientUnits="userSpaceOnUse">
<stop stop-color="#559DF3"/>
<stop offset="1" stop-color="#8275FF"/>
</linearGradient>
<linearGradient id="paint2_linear_0_1" x1="224.455" y1="54.151" x2="291.644" y2="183.009" gradientUnits="userSpaceOnUse">
<stop stop-color="#A068FF"/>
<stop offset="1" stop-color="#678BFD"/>
</linearGradient>
<linearGradient id="paint3_linear_0_1" x1="293.277" y1="269.294" x2="260.135" y2="197.325" gradientUnits="userSpaceOnUse">
<stop stop-color="#41B0EF"/>
<stop offset="1" stop-color="#757EFC"/>
</linearGradient>
<linearGradient id="paint4_linear_0_1" x1="116.8" y1="60.6567" x2="177.205" y2="166.618" gradientUnits="userSpaceOnUse">
<stop stop-color="#BA60FC"/>
<stop offset="1" stop-color="#8177FF"/>
</linearGradient>
<linearGradient id="paint5_linear_0_1" x1="368.477" y1="255.508" x2="327.823" y2="182.43" gradientUnits="userSpaceOnUse">
<stop stop-color="#31BEEB"/>
<stop offset="1" stop-color="#6A8BF8"/>
</linearGradient>
<linearGradient id="paint6_linear_0_1" x1="420.938" y1="168.877" x2="420.325" y2="240.709" gradientUnits="userSpaceOnUse">
<stop stop-color="#EE1C27"/>
<stop offset="1" stop-color="#F1747E"/>
</linearGradient>
<linearGradient id="paint7_linear_0_1" x1="484.17" y1="167.938" x2="483.949" y2="240.731" gradientUnits="userSpaceOnUse">
<stop stop-color="#EE1B26"/>
<stop offset="1" stop-color="#F1747D"/>
</linearGradient>
</defs>
</svg>
